<svg width="126" height="126" viewBox="0 0 126 126" fill="none" xmlns="http://www.w3.org/2000/svg">
<g filter="url(#filter0_d_2_87)">
<circle cx="63" cy="51" r="39" fill="#FF0680"/>
<path fill-rule="evenodd" clip-rule="evenodd" d="M77.2397 36.7603C76.0666 35.5868 74.6531 35 73.0005 35H53C51.3474 35 49.9339 35.5868 48.7603 36.7603C47.5868 37.9339 47 39.3473 47 40.9999V60.9998C47 62.6524 47.5868 64.0659 48.7603 65.2395C49.9339 66.4132 51.3474 67 53 67H73.0002C74.6529 67 76.0663 66.4132 77.2395 65.2395C78.4132 64.0659 79 62.6525 79 60.9998V40.9999C78.9999 39.3473 78.4131 37.9339 77.2397 36.7603ZM60.2502 54.1249C59.389 54.9862 58.3475 55.4169 57.1251 55.4169C55.9028 55.4169 54.8612 54.9862 54.0001 54.1249C53.1391 53.2639 52.7085 52.2224 52.7085 50.9999C52.7085 49.7773 53.1388 48.7359 54.0001 47.8748C54.861 47.0137 55.9028 46.583 57.1251 46.583C58.3474 46.583 59.3889 47.0137 60.2502 47.8748C61.1111 48.7358 61.5417 49.7773 61.5417 50.9999C61.5417 52.2218 61.1111 53.2639 60.2502 54.1249ZM68.8749 55.4169C70.0975 55.4169 71.1393 54.9862 71.9999 54.1249C72.8609 53.2639 73.2919 52.2218 73.2919 50.9999C73.2919 49.7773 72.8609 48.7358 71.9999 47.8748C71.1388 47.0137 70.097 46.583 68.8749 46.583C67.6526 46.583 66.611 47.0137 65.7495 47.8748C64.8889 48.7359 64.458 49.7773 64.458 50.9999C64.458 52.2224 64.8889 53.2639 65.7495 54.1249C66.611 54.9862 67.6528 55.4169 68.8749 55.4169Z" fill="white"/>
</g>
<defs>
<filter id="filter0_d_2_87" x="0" y="0" width="126" height="126" filterUnits="userSpaceOnUse" color-interpolation-filters="sRGB">
<feFlood flood-opacity="0" result="BackgroundImageFix"/>
<feColorMatrix in="SourceAlpha" type="matrix" values="0 0 0 0 0 0 0 0 0 0 0 0 0 0 0 0 0 0 127 0" result="hardAlpha"/>
<feOffset dy="12"/>
<feGaussianBlur stdDeviation="12"/>
<feColorMatrix type="matrix" values="0 0 0 0 0 0 0 0 0 0 0 0 0 0 0 0 0 0 0.1 0"/>
<feBlend mode="normal" in2="BackgroundImageFix" result="effect1_dropShadow_2_87"/>
<feBlend mode="normal" in="SourceGraphic" in2="effect1_dropShadow_2_87" result="shape"/>
</filter>
</defs>
</svg>
